<?xml version="1.0" encoding="UTF-8"?><svg id="Layer_1" xmlns="http://www.w3.org/2000/svg" viewBox="0 0 543.51 543.51"><defs><style>.cls-1{fill:#10c5c6;}.cls-1,.cls-2{fill-rule:evenodd;stroke-width:0px;}.cls-2{fill:#07223e;}</style></defs><path class="cls-2" d="m270.7,74.82c108.19,0,195.9,87.71,195.9,195.9s-87.71,195.9-195.9,195.9-195.9-87.71-195.9-195.9,87.71-195.9,195.9-195.9"/><path class="cls-1" d="m270.7,271.81c-21.03,0-38.08-17.05-38.08-38.08s17.05-38.08,38.08-38.08,38.08,17.05,38.08,38.08-17.05,38.08-38.08,38.08m0,113.24h-.01c-1.99-3.54-15.53-18.57-19.03-23.06-34.28-40.25-63.68-73.02-64.17-122.94,0-.73,0-1.45,0-2.18.03-4.78.49-9.5,1.35-14.1,6.67-37.32,37.48-65.06,78.92-66.31.07,0,.15,0,.22,0,.9-.03,1.79-.04,2.7-.04h.01c.91,0,1.8.02,2.7.04.07,0,.15,0,.22,0,41.44,1.25,72.25,28.99,78.92,66.31.86,4.6,1.32,9.32,1.34,14.1.01.72.01,1.45,0,2.18-.49,49.92-29.89,82.69-64.17,122.94-3.49,4.49-17.04,19.52-19.03,23.06Z"/></svg>