<?xml version="1.0" encoding="UTF-8"?><svg id="Layer_1" xmlns="http://www.w3.org/2000/svg" viewBox="0 0 543.51 543.51"><defs><style>.cls-1{fill:#07223e;}.cls-1,.cls-2,.cls-3{stroke-width:0px;}.cls-2{fill:#10c5c6;}.cls-3{fill:#fff;}</style></defs><path class="cls-1" d="m271.77,31.17c-132.88,0-240.6,107.72-240.6,240.6s107.72,240.58,240.6,240.58,240.58-107.72,240.58-240.58S404.63,31.17,271.77,31.17Z"/><path class="cls-2" d="m449.16,330.25l-25.28-14.02-16.46-9.16-16.5,9.16,16.48,9.14,27.7,15.38-163.34,90.66-163.34-90.66,27.7-15.38,16.48-9.14-16.5-9.16-16.46,9.16-25.28,14.02c-3.82,2.12-6.18,6.14-6.18,10.5s2.36,8.38,6.18,10.48l171.56,95.26h.02c1.82,1,3.82,1.5,5.82,1.5s4-.5,5.82-1.5l171.58-95.26c3.8-2.1,6.18-6.12,6.18-10.48s-2.38-8.38-6.18-10.5Zm-192.08-72.22c-.9-5.46-1.6-11.12-2.1-16.96l-.02.02c.5,5.9,1.22,11.62,2.12,17.14l.04-.02c-.02-.06-.04-.12-.04-.18Z"/><path class="cls-2" d="m218.04,212.55c-.28,3.48-.44,7-.44,10.52-.02,2.7.06,5.34.18,7.92l30.3-16.82c.14-6.36.5-12.66,1.1-18.92l-31.14,17.3Z"/><path class="cls-2" d="m449.16,281.21l-111.9-62.12c-.04,1.32-.08,2.66-.08,3.98-.02,5.1.24,10,.72,14.68l97.2,53.96-27.68,15.36-16.5,9.16-119.16,66.14-119.16-66.14-16.5-9.16-27.68-15.36,82.64-45.88c-.76-5.6-1.24-11.44-1.38-17.54l-95.32,52.92c-3.82,2.12-6.18,6.14-6.18,10.5s2.36,8.36,6.18,10.48l25.28,14.04,16.48,9.14,129.8,72.06.02.02c1.82,1,3.82,1.5,5.82,1.5s4-.5,5.82-1.52l129.82-72.06,16.48-9.14,25.28-14.04c3.8-2.12,6.18-6.14,6.18-10.48s-2.38-8.38-6.18-10.5Z"/><path class="cls-2" d="m278.5,186.49c-.88,5.68-1.52,11.42-1.9,17.22l32.6,18.1c.06-5.92.44-11.82,1.14-17.66l-31.84-17.66Z"/><path class="cls-2" d="m270.72,201.41c.22-2.82.48-5.62.82-8.4-.32,2.86-.6,5.72-.82,8.6h-.02c0-.06.02-.14.02-.2Z"/><path class="cls-2" d="m272.72,184.49c-.22,1.4-.42,2.8-.64,4.2.18-1.4.4-2.8.62-4.2h.02Z"/><path class="cls-3" d="m306.18,355.25c-1.4.98-3,1.44-4.58,1.44-2.52,0-5-1.18-6.56-3.4-12.12-17.34-30.68-49.94-37.92-95.08-.02-.06-.04-.12-.04-.18-.9-5.46-1.6-11.12-2.1-16.96,0-.06-.02-.12-.02-.18-.64-7.24-.98-14.76-.94-22.56.02-2.52.06-5.02.16-7.54v-.2c.06-1.54.12-3.08.22-4.6.06-1.2.14-2.4.22-3.6v-.04c.24-3.64.58-7.26.98-10.86,2.54-22.22,8.16-43.78,16.78-64.44l-3.04-.48-3.04-.48-4.34-.68c-3.81-.6-4.66-5.75-1.23-7.49,11.3-5.75,23.11-13.64,33.17-21.52,2.8-2.19,6.82.03,6.46,3.56-1.29,12.72-1.65,26.92-.47,39.55.36,3.84-4.45,5.86-6.99,2.97l-2.07-2.36-2.2-2.52-2.22-2.54c-6.5,15.88-11.06,32.34-13.7,49.24-.02.06-.02.14-.02.2-.22,1.4-.44,2.8-.62,4.2,0,.02-.02.04,0,.06-.22,1.42-.38,2.84-.54,4.26-.34,2.78-.6,5.58-.82,8.4,0,.06-.02.14-.02.2-.42,5.56-.66,11.14-.68,16.78-.02,5.12.12,10.12.44,14.98.36,5.74.92,11.32,1.66,16.7,6.52,47.14,26.5,80.4,36.04,94.04,2.52,3.62,1.64,8.6-1.98,11.14Z"/><path class="cls-3" d="m353.84,314.55c-1.45,1.09-3.12,1.6-4.8,1.6-2.52,0-5-1.18-6.56-3.42-5.02-7.18-11.7-18.3-17.2-32.94-2.48-6.6-4.72-13.9-6.44-21.88-2.16-9.9-3.54-20.86-3.64-32.76-.02-.72-.02-1.44-.02-2.18.02-5.26.3-10.48.84-15.66,1.02-10.08,3-20.02,5.9-29.7l-3.02-.32-3.04-.34-4.67-.5c-3.83-.41-4.94-5.51-1.59-7.43,11.01-6.29,22.41-14.74,32.07-23.11,2.69-2.33,6.82-.31,6.63,3.24-.67,12.76-.33,26.96,1.47,39.52.55,3.82-4.16,6.08-6.84,3.3l-1.66-1.72-2.44-2.52-2.44-2.52c-2.76,9.98-4.42,20.24-4.98,30.64-.14,2.4-.2,4.8-.22,7.2-.02,3.84.12,7.56.38,11.18.96,13.04,3.6,24.66,6.9,34.58,3.22,9.74,7.08,17.88,10.56,24.16,2.41,4.35,4.65,7.81,6.38,10.31,2.49,3.59,1.94,8.64-1.55,11.27Z"/><path class="cls-3" d="m234.04,314.71c-1.4.98-3,1.44-4.58,1.44-2.52,0-5-1.18-6.56-3.42-4.36-6.22-9.96-15.4-14.92-27.24-1.98-4.66-3.86-9.76-5.52-15.24-2.54-8.3-4.58-17.5-5.76-27.56-.66-5.62-1.04-11.52-1.08-17.68-.02-.68-.02-1.36-.02-2.04.06-15.46,2.34-30.7,6.74-45.36l-3.02-.32-3.04-.34-4.67-.5c-3.83-.41-4.94-5.51-1.59-7.43,11.01-6.29,22.41-14.74,32.07-23.11,2.69-2.33,6.82-.31,6.63,3.24-.67,12.76-.33,26.96,1.47,39.52.55,3.82-4.16,6.08-6.84,3.3l-1.66-1.72-2.44-2.52-2.44-2.52c-2.78,10.02-4.46,20.34-5,30.8-.12,2.34-.2,4.68-.2,7.04-.02,3.82.12,7.56.38,11.16.76,10.28,2.56,19.66,4.9,28.02,1.54,5.6,3.34,10.74,5.24,15.4,4.92,12.18,10.46,21.04,13.88,25.94,2.54,3.62,1.66,8.6-1.96,11.14Z"/></svg>