<?xml version="1.0" encoding="UTF-8"?><svg id="Layer_1" xmlns="http://www.w3.org/2000/svg" xmlns:xlink="http://www.w3.org/1999/xlink" viewBox="0 0 77 77"><defs><style>.cls-1{clip-path:url(#clippath);}.cls-2{fill:none;}.cls-2,.cls-3,.cls-4{stroke-width:0px;}.cls-3{fill:#07223e;}.cls-4{fill:#10b0c6;}</style><clipPath id="clippath"><rect class="cls-2" width="77" height="77"/></clipPath></defs><g class="cls-1"><circle class="cls-4" cx="38.5" cy="38.5" r="38.5"/><path class="cls-3" d="m73.97,23.51c-1.94-4.58-4.71-8.7-8.25-12.24-3.54-3.54-7.65-6.31-12.24-8.25-4.75-2.01-9.79-3.03-14.99-3.03s-10.24,1.02-14.99,3.03c-4.58,1.94-8.7,4.71-12.24,8.25-3.54,3.54-6.31,7.65-8.25,12.24-2.01,4.75-3.03,9.79-3.03,14.99s1.02,10.24,3.03,14.99c1.94,4.58,4.71,8.7,8.25,12.24,3.54,3.54,7.65,6.31,12.24,8.25,4.75,2.01,9.79,3.03,14.99,3.03s10.24-1.02,14.99-3.03c4.58-1.94,8.7-4.71,12.24-8.25,3.54-3.54,6.31-7.65,8.25-12.24,2.01-4.75,3.03-9.79,3.03-14.99s-1.02-10.24-3.03-14.99Zm-16.04,1.96l-21.77,29.84c-.55.76-1.4,1.23-2.34,1.31-.08,0-.17.01-.25.01-.84,0-1.66-.33-2.26-.93l-11.91-11.83c-1.26-1.25-1.26-3.28-.02-4.53,1.25-1.26,3.28-1.26,4.53-.02l9.26,9.2,19.57-26.82c1.04-1.43,3.05-1.74,4.48-.7s1.74,3.05.7,4.48Z"/></g></svg>