<?xml version="1.0" encoding="UTF-8"?><svg id="Layer_1" xmlns="http://www.w3.org/2000/svg" viewBox="0 0 800 800"><defs><style>.cls-1{fill-rule:evenodd;}.cls-1,.cls-2{fill:#fff;stroke-width:0px;}</style></defs><path class="cls-2" d="m334.34,298.99c-9.76-9.76-25.59-9.76-35.36,0-9.76,9.76-9.76,25.59,0,35.35l65.66,65.66-65.65,65.66c-9.76,9.76-9.76,25.59,0,35.35,9.76,9.76,25.59,9.76,35.35,0l65.66-65.65,65.65,65.65c9.76,9.76,25.59,9.76,35.36,0s9.76-25.59,0-35.36l-65.66-65.65,65.66-65.66c9.76-9.76,9.76-25.59,0-35.35-9.76-9.76-25.59-9.76-35.36,0l-65.65,65.65-65.66-65.65Z"/><path class="cls-1" d="m400,41.67c-197.9,0-358.33,160.43-358.33,358.33s160.43,358.33,358.33,358.33,358.33-160.43,358.33-358.33S597.9,41.67,400,41.67ZM91.67,400c0-170.29,138.05-308.33,308.33-308.33s308.33,138.05,308.33,308.33-138.05,308.33-308.33,308.33S91.67,570.29,91.67,400Z"/></svg>