<?xml version="1.0" encoding="UTF-8"?><svg id="Layer_1" xmlns="http://www.w3.org/2000/svg" viewBox="0 0 543.51 543.51"><defs><style>.cls-1{fill:#07223e;}.cls-1,.cls-2,.cls-3{stroke-width:0px;}.cls-2{fill:#10c5c6;}.cls-3{fill:#fff;}</style></defs><circle class="cls-1" cx="271.76" cy="271.76" r="240.59"/><path class="cls-2" d="m289.01,325.03l-73.83,73.83c-19.3,19.3-51.39,19.81-70.36.18-18.43-19.07-18.23-49.56.59-68.38l74.61-74.61c4.53-4.53,9.74-7.99,15.3-10.35-1.16,6.11-1.26,12.37-.33,18.51-1.27.93-2.5,1.99-3.66,3.15l-74,74c-12.97,12.97-13.4,34.62-.21,47.37,12.81,12.38,33.3,12.25,45.95-.4l74.61-74.61c1.16-1.16,2.22-2.39,3.15-3.66.68-.9,1.29-1.82,1.84-2.77.57-.93,1.06-1.88,1.51-2.84,2.33-4.96,3.34-10.41,3.01-15.8-.06-1.02-.16-2.05-.31-3.05-.14-1.02-.35-2.02-.61-3.04-1.39-5.57-4.26-10.85-8.6-15.19-4.34-4.34-9.62-7.21-15.19-8.6-.57-5.37.48-10.86,3.14-15.7,8.58,1.99,16.7,6.32,23.36,12.98,6.66,6.66,10.99,14.78,12.98,23.36.24,1,.45,2.04.61,3.07.18,1.03.33,2.08.44,3.13.58,5.84.11,11.77-1.4,17.47-.28,1.13-.62,2.23-1,3.32-.37,1.13-.79,2.23-1.27,3.34-2.36,5.56-5.83,10.78-10.35,15.3Z"/><path class="cls-2" d="m398.23,215.81l-74.61,74.61c-4.54,4.54-9.74,7.99-15.3,10.35,1.16-6.11,1.26-12.37.33-18.51,1.27-.93,2.5-1.99,3.66-3.15l74.61-74.61c12.78-12.78,12.78-33.57,0-46.36-12.78-12.78-33.57-12.78-46.36,0l-74.61,74.61c-1.16,1.16-2.22,2.39-3.15,3.66-.68.91-1.29,1.82-1.84,2.77-.55.92-1.06,1.85-1.5,2.83-2.35,4.98-3.35,10.42-3.04,15.83.06,1.02.17,2.04.33,3.04.14,1.02.34,2.04.61,3.04,1.39,5.57,4.26,10.85,8.6,15.19,4.34,4.34,9.62,7.21,15.19,8.6.57,5.35-.47,10.85-3.13,15.68-8.58-1.99-16.72-6.31-23.38-12.97-6.66-6.66-10.97-14.79-12.97-23.38-.25-.99-.45-2.04-.62-3.05-.17-1.05-.33-2.08-.42-3.14-.59-5.83-.14-11.74,1.37-17.44.3-1.12.62-2.23,1-3.32.38-1.15.81-2.25,1.29-3.35,2.36-5.56,5.81-10.76,10.35-15.3l74.61-74.61c19.02-19.02,49.96-19.02,68.99,0,19.02,19.02,19.02,49.96,0,68.99Z"/><path class="cls-3" d="m358.24,370.97l-40.49-40.49c-3.12-3.12-3.12-8.19,0-11.31s8.19-3.12,11.31,0l40.49,40.49c3.12,3.12,3.12,8.19,0,11.31s-8.19,3.12-11.31,0Z"/><path class="cls-3" d="m354.71,293.81c-1.45-1.45-2.34-3.45-2.34-5.66,0-4.42,3.58-8,8-8h57.27c4.42,0,8,3.58,8,8,0,4.42-3.58,8-8,8h-57.27c-2.21,0-4.21-.9-5.66-2.34Z"/><path class="cls-3" d="m281.52,423.98c-1.45-1.45-2.34-3.45-2.34-5.66v-57.26c0-4.42,3.58-8,8-8,4.42,0,8,3.58,8,8v57.26c0,4.42-3.58,8-8,8-2.21,0-4.21-.89-5.66-2.34Z"/><path class="cls-3" d="m214.45,227.17l-40.49-40.49c-3.12-3.12-3.12-8.19,0-11.31s8.19-3.12,11.31,0l40.49,40.49c3.12,3.12,3.12,8.19,0,11.31-3.12,3.12-8.19,3.12-11.31,0Z"/><path class="cls-3" d="m251.12,190.21c-1.45-1.45-2.34-3.45-2.34-5.66v-57.27c0-4.42,3.58-8,8-8,4.42,0,8,3.58,8,8v57.27c0,4.42-3.58,8-8,8-2.21,0-4.21-.89-5.66-2.34Z"/><path class="cls-3" d="m120.95,263.4c-1.45-1.45-2.34-3.45-2.34-5.66,0-4.42,3.58-8,8-8h57.27c4.42,0,8,3.58,8,8,0,4.42-3.58,8-8,8h-57.27c-2.21,0-4.21-.9-5.66-2.34Z"/></svg>