<?xml version="1.0" encoding="UTF-8"?><svg id="Layer_1" xmlns="http://www.w3.org/2000/svg" viewBox="0 0 543.51 543.51"><defs><style>.cls-1{fill:#10c5c6;}.cls-1,.cls-2{fill-rule:evenodd;stroke-width:0px;}.cls-2{fill:#07223e;}</style></defs><path class="cls-2" d="m254.01,74.82c108.19,0,195.9,87.71,195.9,195.9s-87.71,195.9-195.9,195.9S58.11,378.91,58.11,270.72,145.82,74.82,254.01,74.82"/><polygon class="cls-1" points="151.35 213.19 217.6 268.75 151.35 324.3 151.35 213.19"/><path class="cls-1" d="m345.79,205.25l-91.06,76.37c-.15.12-.38.12-.53,0l-91.06-76.36h182.65Z"/><polygon class="cls-1" points="356.67 324.3 290.42 268.75 356.67 213.19 356.67 324.3"/><path class="cls-1" d="m280.29,277.24l70.29,58.95h-193.15l70.29-58.95,22.72,19.06c1.96,1.64,5.14,1.66,7.07.04l22.77-19.1Z"/></svg>