<?xml version="1.0" encoding="UTF-8"?><svg id="Layer_1" xmlns="http://www.w3.org/2000/svg" viewBox="0 0 543.51 543.51"><defs><style>.cls-1{fill:#10c5c6;}.cls-1,.cls-2{fill-rule:evenodd;stroke-width:0px;}.cls-2{fill:#07223e;}</style></defs><path class="cls-2" d="m271.76,74.82c108.19,0,195.9,87.71,195.9,195.9s-87.71,195.9-195.9,195.9-195.9-87.71-195.9-195.9,87.71-195.9,195.9-195.9"/><path class="cls-1" d="m245.18,222.43c-6.89-24.94-10.78-39-11.66-42.2-3.34-12.11-28.74-6.66-37.54-.51-37.19,25.97-16.49,78.37,3.78,108.71,37.08,49.29,73.4,75.61,108.97,78.93,28.24,4.99,61.62-7.35,58.25-40.77-.46-4.57-1.53-8.15-3.21-10.74-2.78-3.86-19.03-9.25-48.76-16.15-5.71-1.01-11.62,2.24-17.75,9.76-.91,1.14-1.85,2.16-2.81,3.04-4.69,4.31-7.62,5.1-13.11,2.18-16.75-8.91-46.01-45.38-52.77-56.66-1.99-4.63-.52-8.73,4.41-12.29,9.62-6.39,13.69-14.15,12.2-23.29"/></svg>