<?xml version="1.0" encoding="UTF-8"?><svg id="Layer_1" xmlns="http://www.w3.org/2000/svg" viewBox="0 0 543.51 543.51"><defs><style>.cls-1{fill:#07223e;}.cls-1,.cls-2,.cls-3{stroke-width:0px;}.cls-2{fill:#10c5c6;}.cls-3{fill:#fff;}</style></defs><circle class="cls-1" cx="271.76" cy="271.76" r="240.59"/><path class="cls-2" d="m271.76,453.21l-3.23-1.43c-1.39-.62-34.48-15.41-68.35-44.57-45.41-39.1-70.05-85.43-71.26-133.98-2.71-108.93-3.42-144.28-3.42-144.63l-.13-6.61,146.4-31.13,1.66.36,144.73,30.77-.13,6.61c0,.34-.71,35.69-3.42,144.63-1.21,48.55-25.85,94.88-71.25,133.98-33.87,29.16-66.96,43.96-68.35,44.57l-3.23,1.43ZM141.63,134.89c.31,14.53,1.21,54.78,3.28,137.94,2.41,96.92,106.96,152.98,126.85,162.78,19.88-9.79,124.43-65.85,126.85-162.78,2.07-83.16,2.97-123.41,3.28-137.94l-130.13-27.67-130.13,27.67Z"/><path class="cls-3" d="m271.76,359.56c-32.37,0-58.7-26.33-58.7-58.7,0-29.46,46.62-104.15,51.94-112.57l6.76-10.71,6.76,10.71c5.32,8.42,51.94,83.11,51.94,112.57,0,32.37-26.33,58.7-58.7,58.7Zm0-151.72c-16.13,26.84-42.7,74.86-42.7,93.02,0,23.54,19.16,42.7,42.7,42.7s42.7-19.15,42.7-42.7c0-18.17-26.57-66.18-42.7-93.02Z"/></svg>